
    <svg version="1.1"
    baseProfile="full"
    width="400" height="400"
    xmlns="http://www.w3.org/2000/svg"
    xmlns:xlink="http://www.w3.org/1999/xlink">
    <style>
        .heavy { font: bold 133.33333333333334px sans-serif; fill:#FFFFFF; fill-opacity: .45;}
    </style>
    <defs>
    <clipPath id="mask">
    <rect id="mask-circle" width="400" height="400" style="fill: #CCCCCC"/>
    </clipPath>
    </defs><g clip-path="url(#mask)"><path d="M-84,256L-79,307L-69,474Z" fill="#e43742" stroke="#e43742" stroke-width="1.51"/><path d="M-40,459L40,478L-69,474Z" fill="#db3742" stroke="#db3742" stroke-width="1.51"/><path d="M111,174L172,215L110,211Z" fill="#763742" stroke="#763742" stroke-width="1.51"/><path d="M292,-79L210,-76L-62,-80Z" fill="#f53742" stroke="#f53742" stroke-width="1.51"/><path d="M426,-82L292,-79L-62,-80Z" fill="#e93742" stroke="#e93742" stroke-width="1.51"/><path d="M412,464L486,485L332,492Z" fill="#7e3742" stroke="#7e3742" stroke-width="1.51"/><path d="M-31,169L-71,182L-84,119Z" fill="#ea3742" stroke="#ea3742" stroke-width="1.51"/><path d="M-71,182L-84,256L-84,119Z" fill="#ee3742" stroke="#ee3742" stroke-width="1.51"/><path d="M-40,459L17,431L40,478Z" fill="#c83742" stroke="#c83742" stroke-width="1.51"/><path d="M-80,-13L-70,35L-84,119Z" fill="#ff3742" stroke="#ff3742" stroke-width="1.51"/><path d="M33,207L-15,239L-31,169Z" fill="#bf3742" stroke="#bf3742" stroke-width="1.51"/><path d="M-15,239L33,207L37,259Z" fill="#ad3742" stroke="#ad3742" stroke-width="1.51"/><path d="M33,166L33,207L-31,169Z" fill="#bb3742" stroke="#bb3742" stroke-width="1.51"/><path d="M33,166L14,113L91,143Z" fill="#b43742" stroke="#b43742" stroke-width="1.51"/><path d="M-20,120L-31,169L-84,119Z" fill="#e53742" stroke="#e53742" stroke-width="1.51"/><path d="M14,113L-20,120L-23,64Z" fill="#dd3742" stroke="#dd3742" stroke-width="1.51"/><path d="M-20,120L33,166L-31,169Z" fill="#cc3742" stroke="#cc3742" stroke-width="1.51"/><path d="M33,166L-20,120L14,113Z" fill="#c93742" stroke="#c93742" stroke-width="1.51"/><path d="M83,178L111,174L110,211Z" fill="#893742" stroke="#893742" stroke-width="1.51"/><path d="M33,166L83,178L33,207Z" fill="#a53742" stroke="#a53742" stroke-width="1.51"/><path d="M111,174L83,178L91,143Z" fill="#933742" stroke="#933742" stroke-width="1.51"/><path d="M83,178L33,166L91,143Z" fill="#a13742" stroke="#a13742" stroke-width="1.51"/><path d="M471,-34L426,-82L492,-66Z" fill="#ed3742" stroke="#ed3742" stroke-width="1.51"/><path d="M474,25L471,-34L492,-66Z" fill="#df3742" stroke="#df3742" stroke-width="1.51"/><path d="M181,181L172,215L111,174Z" fill="#6d3742" stroke="#6d3742" stroke-width="1.51"/><path d="M164,140L181,181L111,174Z" fill="#783742" stroke="#783742" stroke-width="1.51"/><path d="M181,181L164,140L228,168Z" fill="#693742" stroke="#693742" stroke-width="1.51"/><path d="M412,464L435,440L486,485Z" fill="#823742" stroke="#823742" stroke-width="1.51"/><path d="M270,376L286,433L223,385Z" fill="#3f3742" stroke="#3f3742" stroke-width="1.51"/><path d="M286,433L270,376L326,368Z" fill="#373742" stroke="#373742" stroke-width="1.51"/><path d="M474,25L491,191L463,78Z" fill="#a13742" stroke="#a13742" stroke-width="1.51"/><path d="M491,191L474,25L492,-66Z" fill="#bb3742" stroke="#bb3742" stroke-width="1.51"/><path d="M487,312L491,191L486,485Z" fill="#723742" stroke="#723742" stroke-width="1.51"/><path d="M219,227L181,181L228,168Z" fill="#543742" stroke="#543742" stroke-width="1.51"/><path d="M181,181L219,227L172,215Z" fill="#563742" stroke="#563742" stroke-width="1.51"/><path d="M17,431L86,421L40,478Z" fill="#ae3742" stroke="#ae3742" stroke-width="1.51"/><path d="M131,463L191,459L220,472Z" fill="#7a3742" stroke="#7a3742" stroke-width="1.51"/><path d="M-70,35L-61,62L-84,119Z" fill="#ff3742" stroke="#ff3742" stroke-width="1.51"/><path d="M-61,62L-70,35L-23,64Z" fill="#ff3742" stroke="#ff3742" stroke-width="1.51"/><path d="M-61,62L-20,120L-84,119Z" fill="#f43742" stroke="#f43742" stroke-width="1.51"/><path d="M-20,120L-61,62L-23,64Z" fill="#f03742" stroke="#f03742" stroke-width="1.51"/><path d="M-71,231L-71,182L-31,169Z" fill="#e03742" stroke="#e03742" stroke-width="1.51"/><path d="M-15,239L-71,231L-31,169Z" fill="#d23742" stroke="#d23742" stroke-width="1.51"/><path d="M-71,182L-71,231L-84,256Z" fill="#e63742" stroke="#e63742" stroke-width="1.51"/><path d="M-71,231L-15,239L-84,256Z" fill="#d93742" stroke="#d93742" stroke-width="1.51"/><path d="M40,66L14,113L-23,64Z" fill="#da3742" stroke="#da3742" stroke-width="1.51"/><path d="M41,20L40,66L-23,64Z" fill="#e13742" stroke="#e13742" stroke-width="1.51"/><path d="M-18,11L-70,35L-80,-13Z" fill="#ff3742" stroke="#ff3742" stroke-width="1.51"/><path d="M-70,35L-18,11L-23,64Z" fill="#ff3742" stroke="#ff3742" stroke-width="1.51"/><path d="M-18,11L41,20L-23,64Z" fill="#f13742" stroke="#f13742" stroke-width="1.51"/><path d="M67,220L83,178L110,211Z" fill="#8c3742" stroke="#8c3742" stroke-width="1.51"/><path d="M83,178L67,220L33,207Z" fill="#9b3742" stroke="#9b3742" stroke-width="1.51"/><path d="M33,207L67,220L37,259Z" fill="#9e3742" stroke="#9e3742" stroke-width="1.51"/><path d="M172,215L130,266L110,211Z" fill="#6a3742" stroke="#6a3742" stroke-width="1.51"/><path d="M130,266L67,220L110,211Z" fill="#7d3742" stroke="#7d3742" stroke-width="1.51"/><path d="M122,85L114,136L91,143Z" fill="#9d3742" stroke="#9d3742" stroke-width="1.51"/><path d="M114,136L122,85L164,140Z" fill="#933742" stroke="#933742" stroke-width="1.51"/><path d="M114,136L111,174L91,143Z" fill="#933742" stroke="#933742" stroke-width="1.51"/><path d="M114,136L164,140L111,174Z" fill="#883742" stroke="#883742" stroke-width="1.51"/><path d="M122,85L76,15L133,11Z" fill="#c23742" stroke="#c23742" stroke-width="1.51"/><path d="M226,111L274,157L228,168Z" fill="#633742" stroke="#633742" stroke-width="1.51"/><path d="M164,140L226,111L228,168Z" fill="#6f3742" stroke="#6f3742" stroke-width="1.51"/><path d="M76,15L131,-35L133,11Z" fill="#d53742" stroke="#d53742" stroke-width="1.51"/><path d="M131,-35L76,15L69,-31Z" fill="#e33742" stroke="#e33742" stroke-width="1.51"/><path d="M435,440L476,407L486,485Z" fill="#833742" stroke="#833742" stroke-width="1.51"/><path d="M476,407L487,312L486,485Z" fill="#7d3742" stroke="#7d3742" stroke-width="1.51"/><path d="M487,312L476,407L477,368Z" fill="#723742" stroke="#723742" stroke-width="1.51"/><path d="M477,368L476,407L440,376Z" fill="#6e3742" stroke="#6e3742" stroke-width="1.51"/><path d="M476,407L435,440L440,376Z" fill="#6f3742" stroke="#6f3742" stroke-width="1.51"/><path d="M365,438L435,440L412,464Z" fill="#6c3742" stroke="#6c3742" stroke-width="1.51"/><path d="M435,440L365,438L440,376Z" fill="#623742" stroke="#623742" stroke-width="1.51"/><path d="M220,472L264,477L332,492Z" fill="#6d3742" stroke="#6d3742" stroke-width="1.51"/><path d="M264,477L286,433L332,492Z" fill="#643742" stroke="#643742" stroke-width="1.51"/><path d="M286,433L264,477L220,472Z" fill="#643742" stroke="#643742" stroke-width="1.51"/><path d="M413,330L477,368L440,376Z" fill="#5c3742" stroke="#5c3742" stroke-width="1.51"/><path d="M413,330L487,312L477,368Z" fill="#623742" stroke="#623742" stroke-width="1.51"/><path d="M413,330L363,280L417,273Z" fill="#3a3742" stroke="#3a3742" stroke-width="1.51"/><path d="M363,280L413,330L379,335Z" fill="#333742" stroke="#333742" stroke-width="1.51"/><path d="M487,312L476,275L491,191Z" fill="#713742" stroke="#713742" stroke-width="1.51"/><path d="M476,275L413,330L417,273Z" fill="#513742" stroke="#513742" stroke-width="1.51"/><path d="M413,330L476,275L487,312Z" fill="#5f3742" stroke="#5f3742" stroke-width="1.51"/><path d="M491,191L458,143L463,78Z" fill="#8d3742" stroke="#8d3742" stroke-width="1.51"/><path d="M458,143L431,90L463,78Z" fill="#943742" stroke="#943742" stroke-width="1.51"/><path d="M379,134L413,170L360,183Z" fill="#603742" stroke="#603742" stroke-width="1.51"/><path d="M86,421L69,480L40,478Z" fill="#aa3742" stroke="#aa3742" stroke-width="1.51"/><path d="M69,480L86,421L131,463Z" fill="#9a3742" stroke="#9a3742" stroke-width="1.51"/><path d="M69,480L131,463L220,472Z" fill="#8d3742" stroke="#8d3742" stroke-width="1.51"/><path d="M69,480L220,472L332,492Z" fill="#7a3742" stroke="#7a3742" stroke-width="1.51"/><path d="M-69,474L69,480L332,492Z" fill="#9d3742" stroke="#9d3742" stroke-width="1.51"/><path d="M40,478L69,480L-69,474Z" fill="#ca3742" stroke="#ca3742" stroke-width="1.51"/><path d="M-39,407L17,431L-40,459Z" fill="#d03742" stroke="#d03742" stroke-width="1.51"/><path d="M86,421L27,376L82,379Z" fill="#973742" stroke="#973742" stroke-width="1.51"/><path d="M27,376L86,421L17,431Z" fill="#a73742" stroke="#a73742" stroke-width="1.51"/><path d="M-39,407L27,376L17,431Z" fill="#be3742" stroke="#be3742" stroke-width="1.51"/><path d="M27,376L-39,407L-37,360Z" fill="#c43742" stroke="#c43742" stroke-width="1.51"/><path d="M14,113L61,74L91,143Z" fill="#ba3742" stroke="#ba3742" stroke-width="1.51"/><path d="M40,66L61,74L14,113Z" fill="#cb3742" stroke="#cb3742" stroke-width="1.51"/><path d="M61,74L122,85L91,143Z" fill="#ad3742" stroke="#ad3742" stroke-width="1.51"/><path d="M61,74L76,15L122,85Z" fill="#c23742" stroke="#c23742" stroke-width="1.51"/><path d="M61,74L40,66L41,20Z" fill="#d43742" stroke="#d43742" stroke-width="1.51"/><path d="M76,15L61,74L41,20Z" fill="#d63742" stroke="#d63742" stroke-width="1.51"/><path d="M76,-67L188,-72L136,-58Z" fill="#f13742" stroke="#f13742" stroke-width="1.51"/><path d="M131,-35L76,-67L136,-58Z" fill="#ef3742" stroke="#ef3742" stroke-width="1.51"/><path d="M76,-67L131,-35L69,-31Z" fill="#f13742" stroke="#f13742" stroke-width="1.51"/><path d="M188,-72L76,-67L210,-76Z" fill="#ef3742" stroke="#ef3742" stroke-width="1.51"/><path d="M210,-76L-20,-77L-62,-80Z" fill="#ff3742" stroke="#ff3742" stroke-width="1.51"/><path d="M76,-67L-20,-77L210,-76Z" fill="#ff3742" stroke="#ff3742" stroke-width="1.51"/><path d="M-18,11L37,-22L41,20Z" fill="#f53742" stroke="#f53742" stroke-width="1.51"/><path d="M37,-22L76,15L41,20Z" fill="#e83742" stroke="#e83742" stroke-width="1.51"/><path d="M76,15L37,-22L69,-31Z" fill="#ec3742" stroke="#ec3742" stroke-width="1.51"/><path d="M219,227L166,266L172,215Z" fill="#4e3742" stroke="#4e3742" stroke-width="1.51"/><path d="M166,266L130,266L172,215Z" fill="#5b3742" stroke="#5b3742" stroke-width="1.51"/><path d="M130,266L166,266L133,314Z" fill="#5e3742" stroke="#5e3742" stroke-width="1.51"/><path d="M81,320L130,266L133,314Z" fill="#6f3742" stroke="#6f3742" stroke-width="1.51"/><path d="M27,376L81,320L82,379Z" fill="#923742" stroke="#923742" stroke-width="1.51"/><path d="M67,220L61,286L37,259Z" fill="#953742" stroke="#953742" stroke-width="1.51"/><path d="M130,266L61,286L67,220Z" fill="#833742" stroke="#833742" stroke-width="1.51"/><path d="M81,320L61,286L130,266Z" fill="#7d3742" stroke="#7d3742" stroke-width="1.51"/><path d="M156,377L114,375L133,314Z" fill="#683742" stroke="#683742" stroke-width="1.51"/><path d="M81,320L114,375L82,379Z" fill="#813742" stroke="#813742" stroke-width="1.51"/><path d="M114,375L81,320L133,314Z" fill="#743742" stroke="#743742" stroke-width="1.51"/><path d="M114,375L86,421L82,379Z" fill="#873742" stroke="#873742" stroke-width="1.51"/><path d="M207,407L156,377L223,385Z" fill="#523742" stroke="#523742" stroke-width="1.51"/><path d="M191,459L207,407L220,472Z" fill="#683742" stroke="#683742" stroke-width="1.51"/><path d="M286,433L207,407L223,385Z" fill="#4a3742" stroke="#4a3742" stroke-width="1.51"/><path d="M207,407L286,433L220,472Z" fill="#5a3742" stroke="#5a3742" stroke-width="1.51"/><path d="M410,32L474,25L463,78Z" fill="#b13742" stroke="#b13742" stroke-width="1.51"/><path d="M431,90L410,32L463,78Z" fill="#a13742" stroke="#a13742" stroke-width="1.51"/><path d="M306,-74L377,-76L316,-19Z" fill="#d73742" stroke="#d73742" stroke-width="1.51"/><path d="M377,-76L378,-16L316,-19Z" fill="#cd3742" stroke="#cd3742" stroke-width="1.51"/><path d="M377,-76L292,-79L426,-82Z" fill="#e73742" stroke="#e73742" stroke-width="1.51"/><path d="M377,-76L306,-74L292,-79Z" fill="#e23742" stroke="#e23742" stroke-width="1.51"/><path d="M181,62L122,85L133,11Z" fill="#af3742" stroke="#af3742" stroke-width="1.51"/><path d="M187,26L181,62L133,11Z" fill="#b33742" stroke="#b33742" stroke-width="1.51"/><path d="M226,111L181,62L232,69Z" fill="#8d3742" stroke="#8d3742" stroke-width="1.51"/><path d="M122,85L181,62L164,140Z" fill="#963742" stroke="#963742" stroke-width="1.51"/><path d="M181,62L226,111L164,140Z" fill="#863742" stroke="#863742" stroke-width="1.51"/><path d="M131,-35L184,-29L133,11Z" fill="#d33742" stroke="#d33742" stroke-width="1.51"/><path d="M184,-29L187,26L133,11Z" fill="#c33742" stroke="#c33742" stroke-width="1.51"/><path d="M188,-72L184,-29L136,-58Z" fill="#e23742" stroke="#e23742" stroke-width="1.51"/><path d="M184,-29L131,-35L136,-58Z" fill="#df3742" stroke="#df3742" stroke-width="1.51"/><path d="M363,463L412,464L332,492Z" fill="#6f3742" stroke="#6f3742" stroke-width="1.51"/><path d="M363,463L365,438L412,464Z" fill="#683742" stroke="#683742" stroke-width="1.51"/><path d="M365,438L372,357L440,376Z" fill="#4d3742" stroke="#4d3742" stroke-width="1.51"/><path d="M372,357L413,330L440,376Z" fill="#483742" stroke="#483742" stroke-width="1.51"/><path d="M413,330L372,357L379,335Z" fill="#3a3742" stroke="#3a3742" stroke-width="1.51"/><path d="M372,357L365,438L326,368Z" fill="#3d3742" stroke="#3d3742" stroke-width="1.51"/><path d="M363,280L393,239L417,273Z" fill="#3a3742" stroke="#3a3742" stroke-width="1.51"/><path d="M413,170L393,239L360,183Z" fill="#513742" stroke="#513742" stroke-width="1.51"/><path d="M329,317L363,280L379,335Z" fill="#223742" stroke="#223742" stroke-width="1.51"/><path d="M329,317L372,357L326,368Z" fill="#263742" stroke="#263742" stroke-width="1.51"/><path d="M372,357L329,317L379,335Z" fill="#2a3742" stroke="#2a3742" stroke-width="1.51"/><path d="M438,230L476,275L417,273Z" fill="#593742" stroke="#593742" stroke-width="1.51"/><path d="M393,239L438,230L417,273Z" fill="#4c3742" stroke="#4c3742" stroke-width="1.51"/><path d="M438,230L393,239L413,170Z" fill="#563742" stroke="#563742" stroke-width="1.51"/><path d="M408,140L458,143L413,170Z" fill="#753742" stroke="#753742" stroke-width="1.51"/><path d="M379,134L408,140L413,170Z" fill="#6d3742" stroke="#6d3742" stroke-width="1.51"/><path d="M458,143L408,140L431,90Z" fill="#843742" stroke="#843742" stroke-width="1.51"/><path d="M408,140L379,134L431,90Z" fill="#7c3742" stroke="#7c3742" stroke-width="1.51"/><path d="M334,129L379,134L360,183Z" fill="#613742" stroke="#613742" stroke-width="1.51"/><path d="M-66,438L-40,459L-69,474Z" fill="#eb3742" stroke="#eb3742" stroke-width="1.51"/><path d="M-66,438L-39,407L-40,459Z" fill="#e03742" stroke="#e03742" stroke-width="1.51"/><path d="M-79,307L-66,438L-69,474Z" fill="#e83742" stroke="#e83742" stroke-width="1.51"/><path d="M-12,-22L37,-22L-18,11Z" fill="#ff3742" stroke="#ff3742" stroke-width="1.51"/><path d="M-12,-22L-18,11L-80,-13Z" fill="#ff3742" stroke="#ff3742" stroke-width="1.51"/><path d="M-12,-22L-80,-13L-62,-80Z" fill="#ff3742" stroke="#ff3742" stroke-width="1.51"/><path d="M-20,-77L-12,-22L-62,-80Z" fill="#ff3742" stroke="#ff3742" stroke-width="1.51"/><path d="M166,266L192,312L133,314Z" fill="#513742" stroke="#513742" stroke-width="1.51"/><path d="M156,377L192,312L223,385Z" fill="#4a3742" stroke="#4a3742" stroke-width="1.51"/><path d="M192,312L156,377L133,314Z" fill="#563742" stroke="#563742" stroke-width="1.51"/><path d="M17,335L81,320L27,376Z" fill="#9d3742" stroke="#9d3742" stroke-width="1.51"/><path d="M17,335L61,286L81,320Z" fill="#943742" stroke="#943742" stroke-width="1.51"/><path d="M17,335L27,376L-37,360Z" fill="#b63742" stroke="#b63742" stroke-width="1.51"/><path d="M124,414L114,375L156,377Z" fill="#723742" stroke="#723742" stroke-width="1.51"/><path d="M86,421L124,414L131,463Z" fill="#893742" stroke="#893742" stroke-width="1.51"/><path d="M114,375L124,414L86,421Z" fill="#833742" stroke="#833742" stroke-width="1.51"/><path d="M435,-33L410,32L378,-16Z" fill="#c23742" stroke="#c23742" stroke-width="1.51"/><path d="M471,-34L435,-33L426,-82Z" fill="#e33742" stroke="#e33742" stroke-width="1.51"/><path d="M435,-33L471,-34L474,25Z" fill="#d33742" stroke="#d33742" stroke-width="1.51"/><path d="M410,32L435,-33L474,25Z" fill="#c23742" stroke="#c23742" stroke-width="1.51"/><path d="M435,-33L377,-76L426,-82Z" fill="#e43742" stroke="#e43742" stroke-width="1.51"/><path d="M377,-76L435,-33L378,-16Z" fill="#d53742" stroke="#d53742" stroke-width="1.51"/><path d="M181,62L208,41L232,69Z" fill="#9c3742" stroke="#9c3742" stroke-width="1.51"/><path d="M208,41L181,62L187,26Z" fill="#a73742" stroke="#a73742" stroke-width="1.51"/><path d="M208,41L280,41L232,69Z" fill="#9a3742" stroke="#9a3742" stroke-width="1.51"/><path d="M363,463L331,435L365,438Z" fill="#5c3742" stroke="#5c3742" stroke-width="1.51"/><path d="M331,435L286,433L326,368Z" fill="#433742" stroke="#433742" stroke-width="1.51"/><path d="M365,438L331,435L326,368Z" fill="#483742" stroke="#483742" stroke-width="1.51"/><path d="M286,433L331,435L332,492Z" fill="#5c3742" stroke="#5c3742" stroke-width="1.51"/><path d="M331,435L363,463L332,492Z" fill="#653742" stroke="#653742" stroke-width="1.51"/><path d="M270,376L293,307L326,368Z" fill="#1e3742" stroke="#1e3742" stroke-width="1.51"/><path d="M293,307L329,317L326,368Z" fill="#143742" stroke="#143742" stroke-width="1.51"/><path d="M476,275L464,211L491,191Z" fill="#733742" stroke="#733742" stroke-width="1.51"/><path d="M438,230L464,211L476,275Z" fill="#663742" stroke="#663742" stroke-width="1.51"/><path d="M464,211L438,230L413,170Z" fill="#653742" stroke="#653742" stroke-width="1.51"/><path d="M458,143L464,211L413,170Z" fill="#733742" stroke="#733742" stroke-width="1.51"/><path d="M464,211L458,143L491,191Z" fill="#7c3742" stroke="#7c3742" stroke-width="1.51"/><path d="M314,163L334,129L360,183Z" fill="#573742" stroke="#573742" stroke-width="1.51"/><path d="M280,41L289,84L232,69Z" fill="#8e3742" stroke="#8e3742" stroke-width="1.51"/><path d="M289,84L226,111L232,69Z" fill="#833742" stroke="#833742" stroke-width="1.51"/><path d="M-37,360L-64,372L-79,307Z" fill="#da3742" stroke="#da3742" stroke-width="1.51"/><path d="M-64,372L-66,438L-79,307Z" fill="#e23742" stroke="#e23742" stroke-width="1.51"/><path d="M-39,407L-64,372L-37,360Z" fill="#d53742" stroke="#d53742" stroke-width="1.51"/><path d="M-66,438L-64,372L-39,407Z" fill="#df3742" stroke="#df3742" stroke-width="1.51"/><path d="M24,-63L-12,-22L-20,-77Z" fill="#ff3742" stroke="#ff3742" stroke-width="1.51"/><path d="M-12,-22L24,-63L37,-22Z" fill="#ff3742" stroke="#ff3742" stroke-width="1.51"/><path d="M24,-63L-20,-77L76,-67Z" fill="#ff3742" stroke="#ff3742" stroke-width="1.51"/><path d="M24,-63L76,-67L69,-31Z" fill="#ff3742" stroke="#ff3742" stroke-width="1.51"/><path d="M37,-22L24,-63L69,-31Z" fill="#ff3742" stroke="#ff3742" stroke-width="1.51"/><path d="M-21,312L-37,360L-79,307Z" fill="#d03742" stroke="#d03742" stroke-width="1.51"/><path d="M-21,312L17,335L-37,360Z" fill="#bd3742" stroke="#bd3742" stroke-width="1.51"/><path d="M207,407L171,431L156,377Z" fill="#603742" stroke="#603742" stroke-width="1.51"/><path d="M171,431L124,414L156,377Z" fill="#6e3742" stroke="#6e3742" stroke-width="1.51"/><path d="M171,431L207,407L191,459Z" fill="#673742" stroke="#673742" stroke-width="1.51"/><path d="M171,431L191,459L131,463Z" fill="#7a3742" stroke="#7a3742" stroke-width="1.51"/><path d="M124,414L171,431L131,463Z" fill="#7d3742" stroke="#7d3742" stroke-width="1.51"/><path d="M184,-29L217,-35L187,26Z" fill="#c63742" stroke="#c63742" stroke-width="1.51"/><path d="M217,-35L208,41L187,26Z" fill="#b73742" stroke="#b73742" stroke-width="1.51"/><path d="M217,-35L188,-72L210,-76Z" fill="#e03742" stroke="#e03742" stroke-width="1.51"/><path d="M217,-35L184,-29L188,-72Z" fill="#d83742" stroke="#d83742" stroke-width="1.51"/><path d="M243,283L166,266L219,227Z" fill="#3b3742" stroke="#3b3742" stroke-width="1.51"/><path d="M243,283L192,312L166,266Z" fill="#3c3742" stroke="#3c3742" stroke-width="1.51"/><path d="M329,317L307,279L363,280Z" fill="#143742" stroke="#143742" stroke-width="1.51"/><path d="M293,307L307,279L329,317Z" fill="#053742" stroke="#053742" stroke-width="1.51"/><path d="M288,117L314,163L274,157Z" fill="#5c3742" stroke="#5c3742" stroke-width="1.51"/><path d="M314,163L288,117L334,129Z" fill="#623742" stroke="#623742" stroke-width="1.51"/><path d="M226,111L288,117L274,157Z" fill="#693742" stroke="#693742" stroke-width="1.51"/><path d="M289,84L288,117L226,111Z" fill="#773742" stroke="#773742" stroke-width="1.51"/><path d="M334,129L369,68L379,134Z" fill="#773742" stroke="#773742" stroke-width="1.51"/><path d="M379,134L369,68L431,90Z" fill="#863742" stroke="#863742" stroke-width="1.51"/><path d="M369,68L410,32L431,90Z" fill="#9b3742" stroke="#9b3742" stroke-width="1.51"/><path d="M-21,312L-8,280L17,335Z" fill="#b63742" stroke="#b63742" stroke-width="1.51"/><path d="M61,286L-8,280L37,259Z" fill="#a23742" stroke="#a23742" stroke-width="1.51"/><path d="M17,335L-8,280L61,286Z" fill="#a63742" stroke="#a63742" stroke-width="1.51"/><path d="M-8,280L-15,239L37,259Z" fill="#b33742" stroke="#b33742" stroke-width="1.51"/><path d="M-15,239L-8,280L-84,256Z" fill="#cb3742" stroke="#cb3742" stroke-width="1.51"/><path d="M-84,256L-8,280L-79,307Z" fill="#d63742" stroke="#d63742" stroke-width="1.51"/><path d="M-8,280L-21,312L-79,307Z" fill="#c93742" stroke="#c93742" stroke-width="1.51"/><path d="M208,41L262,-22L280,41Z" fill="#aa3742" stroke="#aa3742" stroke-width="1.51"/><path d="M217,-35L262,-22L208,41Z" fill="#bc3742" stroke="#bc3742" stroke-width="1.51"/><path d="M280,41L262,-22L313,10Z" fill="#ae3742" stroke="#ae3742" stroke-width="1.51"/><path d="M262,-22L316,-19L313,10Z" fill="#ba3742" stroke="#ba3742" stroke-width="1.51"/><path d="M306,-74L262,-22L292,-79Z" fill="#d73742" stroke="#d73742" stroke-width="1.51"/><path d="M262,-22L306,-74L316,-19Z" fill="#cb3742" stroke="#cb3742" stroke-width="1.51"/><path d="M292,-79L262,-22L210,-76Z" fill="#d93742" stroke="#d93742" stroke-width="1.51"/><path d="M262,-22L217,-35L210,-76Z" fill="#d33742" stroke="#d33742" stroke-width="1.51"/><path d="M243,283L239,331L192,312Z" fill="#2d3742" stroke="#2d3742" stroke-width="1.51"/><path d="M239,331L270,376L223,385Z" fill="#333742" stroke="#333742" stroke-width="1.51"/><path d="M192,312L239,331L223,385Z" fill="#373742" stroke="#373742" stroke-width="1.51"/><path d="M239,331L293,307L270,376Z" fill="#1e3742" stroke="#1e3742" stroke-width="1.51"/><path d="M239,331L243,283L293,307Z" fill="#193742" stroke="#193742" stroke-width="1.51"/><path d="M307,279L323,234L363,280Z" fill="#1c3742" stroke="#1c3742" stroke-width="1.51"/><path d="M393,239L323,234L360,183Z" fill="#3c3742" stroke="#3c3742" stroke-width="1.51"/><path d="M323,234L393,239L363,280Z" fill="#2e3742" stroke="#2e3742" stroke-width="1.51"/><path d="M323,234L314,163L360,183Z" fill="#423742" stroke="#423742" stroke-width="1.51"/><path d="M288,117L306,86L334,129Z" fill="#713742" stroke="#713742" stroke-width="1.51"/><path d="M306,86L288,117L289,84Z" fill="#7a3742" stroke="#7a3742" stroke-width="1.51"/><path d="M306,86L369,68L334,129Z" fill="#7d3742" stroke="#7d3742" stroke-width="1.51"/><path d="M306,86L280,41L313,10Z" fill="#983742" stroke="#983742" stroke-width="1.51"/><path d="M306,86L289,84L280,41Z" fill="#8a3742" stroke="#8a3742" stroke-width="1.51"/><path d="M316,-19L366,27L313,10Z" fill="#b13742" stroke="#b13742" stroke-width="1.51"/><path d="M378,-16L366,27L316,-19Z" fill="#b83742" stroke="#b83742" stroke-width="1.51"/><path d="M366,27L306,86L313,10Z" fill="#9c3742" stroke="#9c3742" stroke-width="1.51"/><path d="M306,86L366,27L369,68Z" fill="#923742" stroke="#923742" stroke-width="1.51"/><path d="M410,32L366,27L378,-16Z" fill="#b33742" stroke="#b33742" stroke-width="1.51"/><path d="M369,68L366,27L410,32Z" fill="#a23742" stroke="#a23742" stroke-width="1.51"/><path d="M286,232L323,234L307,279Z" fill="#1f3742" stroke="#1f3742" stroke-width="1.51"/><path d="M274,157L286,232L228,168Z" fill="#483742" stroke="#483742" stroke-width="1.51"/><path d="M286,232L219,227L228,168Z" fill="#403742" stroke="#403742" stroke-width="1.51"/><path d="M314,163L286,232L274,157Z" fill="#453742" stroke="#453742" stroke-width="1.51"/><path d="M323,234L286,232L314,163Z" fill="#363742" stroke="#363742" stroke-width="1.51"/><path d="M263,258L286,232L307,279Z" fill="#1b3742" stroke="#1b3742" stroke-width="1.51"/><path d="M243,283L263,258L293,307Z" fill="#163742" stroke="#163742" stroke-width="1.51"/><path d="M263,258L307,279L293,307Z" fill="#0d3742" stroke="#0d3742" stroke-width="1.51"/><path d="M263,258L243,283L219,227Z" fill="#2b3742" stroke="#2b3742" stroke-width="1.51"/><path d="M286,232L263,258L219,227Z" fill="#2d3742" stroke="#2d3742" stroke-width="1.51"/>
    </g>
    <rect id="circle-shadow" width="400" height="400" style="fill: transparent;" />
    <g transform="translate(0,14)">
        <svg width="400" height="400">
            <text x="50%" y="50%" alignment-baseline="middle" text-anchor="middle" class="heavy">HH</text>
        </svg>
    </g>
    </svg>
    